<?xml version="1.0" encoding="UTF-8"?>
<svg xmlns="http://www.w3.org/2000/svg" width="1320" height="360" viewBox="0 0 1320 360" role="img" aria-labelledby="title desc">
  <title id="title">MD3Music Star 趋势</title>
  <desc id="desc">截至 2026-09-29，当前 Stars 709，首尾差值 +509，共 40 个快照。悬停曲线可查看每日数据。</desc>
  <style>
    text { font-family: Arial, 'Microsoft YaHei', sans-serif; fill: #e7e7e9; }
    .subtitle, .axis, .metric-label, .footer { fill: #a7a7ad; }
    .subtitle { font-size: 12px; } .axis { font-size: 11px; }
    .metric-value { font-size: 14px; font-weight: 700; } .metric-label { font-size: 11px; }
    .footer { font-size: 10px; } .tooltip-date { font-size: 12px; font-weight: 700; }
    .tooltip-text { font-size: 12px; } .crosshair { stroke: #b9b9bc; stroke-width: 1; }
    .tooltip { opacity: 0; pointer-events: none; } .point:hover .tooltip { opacity: 1; }
  </style>
  <rect x="1" y="1" width="1318" height="358" rx="9" fill="#1d1e20" stroke="#35363a"/>
  <text x="24" y="34" font-size="18" font-weight="700">Star 趋势</text>
  <text x="24" y="58" class="subtitle">最近 90 天本地快照趋势，前台不实时请求 GitHub。</text>
  <rect x="924" y="15" width="92" height="55" rx="5" fill="#303033"/><text x="933" y="37" class="metric-value">709</text><text x="933" y="58" class="metric-label">当前 Stars</text><rect x="1019" y="15" width="92" height="55" rx="5" fill="#303033"/><text x="1028" y="37" class="metric-value">+509</text><text x="1028" y="58" class="metric-label">首尾差值</text><rect x="1114" y="15" width="92" height="55" rx="5" fill="#303033"/><text x="1123" y="37" class="metric-value">40</text><text x="1123" y="58" class="metric-label">快照数量</text><rect x="1209" y="15" width="92" height="55" rx="5" fill="#303033"/><text x="1218" y="37" class="metric-value">2026-09-29</text><text x="1218" y="58" class="metric-label">最近快照</text>
  <g class="axis"><line x1="72" y1="306.0" x2="1292" y2="306.0" stroke="#45464a" stroke-dasharray="4 5"/><text x="60" y="310.0" text-anchor="end">200</text><line x1="72" y1="239.3" x2="1292" y2="239.3" stroke="#45464a" stroke-dasharray="4 5"/><text x="60" y="243.3" text-anchor="end">400</text><line x1="72" y1="172.7" x2="1292" y2="172.7" stroke="#45464a" stroke-dasharray="4 5"/><text x="60" y="176.7" text-anchor="end">600</text><line x1="72" y1="106.0" x2="1292" y2="106.0" stroke="#45464a" stroke-dasharray="4 5"/><text x="60" y="110.0" text-anchor="end">800</text><text x="72.0" y="326" text-anchor="middle">2026-08-21</text><text x="165.8" y="326" text-anchor="middle">2026-08-24</text><text x="259.7" y="326" text-anchor="middle">2026-08-27</text><text x="384.8" y="326" text-anchor="middle">2026-08-31</text><text x="478.7" y="326" text-anchor="middle">2026-09-03</text><text x="572.5" y="326" text-anchor="middle">2026-09-06</text><text x="697.6" y="326" text-anchor="middle">2026-09-10</text><text x="791.5" y="326" text-anchor="middle">2026-09-13</text><text x="885.3" y="326" text-anchor="middle">2026-09-16</text><text x="979.2" y="326" text-anchor="middle">2026-09-19</text><text x="1073.0" y="326" text-anchor="middle">2026-09-22</text><text x="1198.2" y="326" text-anchor="middle">2026-09-26</text><text x="1292.0" y="326" text-anchor="middle">2026-09-29</text></g>
  <path d="M 72.0 306.0 Q 103.3 304.7 118.9 303.8 Q 134.6 303.0 150.2 302.0 Q 165.8 301.0 181.5 300.0 Q 197.1 299.0 212.8 298.5 Q 228.4 298.0 244.1 297.2 Q 259.7 296.3 275.3 296.0 Q 291.0 295.7 306.6 295.0 Q 322.3 294.3 337.9 292.8 Q 353.5 291.3 369.2 289.2 Q 384.8 287.0 400.5 286.0 Q 416.1 285.0 431.7 283.5 Q 447.4 282.0 463.0 281.3 Q 478.7 280.7 494.3 280.3 Q 509.9 280.0 525.6 279.3 Q 541.2 278.7 556.9 277.7 Q 572.5 276.7 588.2 275.3 Q 603.8 274.0 619.4 273.2 Q 635.1 272.3 650.7 272.0 Q 666.4 271.7 682.0 271.5 Q 697.6 271.3 713.3 270.2 Q 728.9 269.0 744.6 268.5 Q 760.2 268.0 775.8 267.2 Q 791.5 266.3 807.1 265.5 Q 822.8 264.7 838.4 259.5 Q 854.1 254.3 869.7 248.8 Q 885.3 243.3 901.0 236.8 Q 916.6 230.3 932.3 223.7 Q 947.9 217.0 963.5 210.5 Q 979.2 204.0 994.8 200.7 Q 1010.5 197.3 1026.1 192.8 Q 1041.7 188.3 1057.4 185.5 Q 1073.0 182.7 1088.7 179.5 Q 1104.3 176.3 1119.9 173.7 Q 1135.6 171.0 1151.2 166.7 Q 1166.9 162.3 1182.5 159.5 Q 1198.2 156.7 1213.8 154.3 Q 1229.4 152.0 1245.1 149.3 Q 1260.7 146.7 1276.4 141.5 L 1292.0 136.3 L 1292.0 306.0 L 72.0 306.0 Z" fill="#5baeff" fill-opacity=".13"/>
  <path d="M 72.0 306.0 Q 103.3 304.7 118.9 303.8 Q 134.6 303.0 150.2 302.0 Q 165.8 301.0 181.5 300.0 Q 197.1 299.0 212.8 298.5 Q 228.4 298.0 244.1 297.2 Q 259.7 296.3 275.3 296.0 Q 291.0 295.7 306.6 295.0 Q 322.3 294.3 337.9 292.8 Q 353.5 291.3 369.2 289.2 Q 384.8 287.0 400.5 286.0 Q 416.1 285.0 431.7 283.5 Q 447.4 282.0 463.0 281.3 Q 478.7 280.7 494.3 280.3 Q 509.9 280.0 525.6 279.3 Q 541.2 278.7 556.9 277.7 Q 572.5 276.7 588.2 275.3 Q 603.8 274.0 619.4 273.2 Q 635.1 272.3 650.7 272.0 Q 666.4 271.7 682.0 271.5 Q 697.6 271.3 713.3 270.2 Q 728.9 269.0 744.6 268.5 Q 760.2 268.0 775.8 267.2 Q 791.5 266.3 807.1 265.5 Q 822.8 264.7 838.4 259.5 Q 854.1 254.3 869.7 248.8 Q 885.3 243.3 901.0 236.8 Q 916.6 230.3 932.3 223.7 Q 947.9 217.0 963.5 210.5 Q 979.2 204.0 994.8 200.7 Q 1010.5 197.3 1026.1 192.8 Q 1041.7 188.3 1057.4 185.5 Q 1073.0 182.7 1088.7 179.5 Q 1104.3 176.3 1119.9 173.7 Q 1135.6 171.0 1151.2 166.7 Q 1166.9 162.3 1182.5 159.5 Q 1198.2 156.7 1213.8 154.3 Q 1229.4 152.0 1245.1 149.3 Q 1260.7 146.7 1276.4 141.5 L 1292.0 136.3" fill="none" stroke="#63b7ff" stroke-width="2" stroke-linecap="round" stroke-linejoin="round"/>
  <g><g class="point"><circle cx="72.0" cy="306.0" r="11" fill="transparent"/><g class="tooltip"><line x1="72.0" y1="106" x2="72.0" y2="306" class="crosshair"/><circle cx="72.0" cy="306.0" r="4" fill="#69baff" stroke="#fff" stroke-width="1.5"/><rect x="85.0" y="236.0" width="124" height="66" rx="4" fill="#101113" opacity=".96"/><text x="93.0" y="254.0" class="tooltip-date">2026-08-21</text><text x="93.0" y="275.0" class="tooltip-text">Stars: 200</text><text x="93.0" y="293.0" class="tooltip-text">单日增长: —</text></g></g><g class="point"><circle cx="103.3" cy="304.7" r="11" fill="transparent"/><g class="tooltip"><line x1="103.3" y1="106" x2="103.3" y2="306" class="crosshair"/><circle cx="103.3" cy="304.7" r="4" fill="#69baff" stroke="#fff" stroke-width="1.5"/><rect x="116.3" y="236.0" width="124" height="66" rx="4" fill="#101113" opacity=".96"/><text x="124.3" y="254.0" class="tooltip-date">2026-08-22</text><text x="124.3" y="275.0" class="tooltip-text">Stars: 204</text><text x="124.3" y="293.0" class="tooltip-text">单日增长: +4</text></g></g><g class="point"><circle cx="134.6" cy="303.0" r="11" fill="transparent"/><g class="tooltip"><line x1="134.6" y1="106" x2="134.6" y2="306" class="crosshair"/><circle cx="134.6" cy="303.0" r="4" fill="#69baff" stroke="#fff" stroke-width="1.5"/><rect x="147.6" y="236.0" width="124" height="66" rx="4" fill="#101113" opacity=".96"/><text x="155.6" y="254.0" class="tooltip-date">2026-08-23</text><text x="155.6" y="275.0" class="tooltip-text">Stars: 209</text><text x="155.6" y="293.0" class="tooltip-text">单日增长: +5</text></g></g><g class="point"><circle cx="165.8" cy="301.0" r="11" fill="transparent"/><g class="tooltip"><line x1="165.8" y1="106" x2="165.8" y2="306" class="crosshair"/><circle cx="165.8" cy="301.0" r="4" fill="#69baff" stroke="#fff" stroke-width="1.5"/><rect x="178.8" y="236.0" width="124" height="66" rx="4" fill="#101113" opacity=".96"/><text x="186.8" y="254.0" class="tooltip-date">2026-08-24</text><text x="186.8" y="275.0" class="tooltip-text">Stars: 215</text><text x="186.8" y="293.0" class="tooltip-text">单日增长: +6</text></g></g><g class="point"><circle cx="197.1" cy="299.0" r="11" fill="transparent"/><g class="tooltip"><line x1="197.1" y1="106" x2="197.1" y2="306" class="crosshair"/><circle cx="197.1" cy="299.0" r="4" fill="#69baff" stroke="#fff" stroke-width="1.5"/><rect x="210.1" y="236.0" width="124" height="66" rx="4" fill="#101113" opacity=".96"/><text x="218.1" y="254.0" class="tooltip-date">2026-08-25</text><text x="218.1" y="275.0" class="tooltip-text">Stars: 221</text><text x="218.1" y="293.0" class="tooltip-text">单日增长: +6</text></g></g><g class="point"><circle cx="228.4" cy="298.0" r="11" fill="transparent"/><g class="tooltip"><line x1="228.4" y1="106" x2="228.4" y2="306" class="crosshair"/><circle cx="228.4" cy="298.0" r="4" fill="#69baff" stroke="#fff" stroke-width="1.5"/><rect x="241.4" y="236.0" width="124" height="66" rx="4" fill="#101113" opacity=".96"/><text x="249.4" y="254.0" class="tooltip-date">2026-08-26</text><text x="249.4" y="275.0" class="tooltip-text">Stars: 224</text><text x="249.4" y="293.0" class="tooltip-text">单日增长: +3</text></g></g><g class="point"><circle cx="259.7" cy="296.3" r="11" fill="transparent"/><g class="tooltip"><line x1="259.7" y1="106" x2="259.7" y2="306" class="crosshair"/><circle cx="259.7" cy="296.3" r="4" fill="#69baff" stroke="#fff" stroke-width="1.5"/><rect x="272.7" y="236.0" width="124" height="66" rx="4" fill="#101113" opacity=".96"/><text x="280.7" y="254.0" class="tooltip-date">2026-08-27</text><text x="280.7" y="275.0" class="tooltip-text">Stars: 229</text><text x="280.7" y="293.0" class="tooltip-text">单日增长: +5</text></g></g><g class="point"><circle cx="291.0" cy="295.7" r="11" fill="transparent"/><g class="tooltip"><line x1="291.0" y1="106" x2="291.0" y2="306" class="crosshair"/><circle cx="291.0" cy="295.7" r="4" fill="#69baff" stroke="#fff" stroke-width="1.5"/><rect x="304.0" y="236.0" width="124" height="66" rx="4" fill="#101113" opacity=".96"/><text x="312.0" y="254.0" class="tooltip-date">2026-08-28</text><text x="312.0" y="275.0" class="tooltip-text">Stars: 231</text><text x="312.0" y="293.0" class="tooltip-text">单日增长: +2</text></g></g><g class="point"><circle cx="322.3" cy="294.3" r="11" fill="transparent"/><g class="tooltip"><line x1="322.3" y1="106" x2="322.3" y2="306" class="crosshair"/><circle cx="322.3" cy="294.3" r="4" fill="#69baff" stroke="#fff" stroke-width="1.5"/><rect x="335.3" y="236.0" width="124" height="66" rx="4" fill="#101113" opacity=".96"/><text x="343.3" y="254.0" class="tooltip-date">2026-08-29</text><text x="343.3" y="275.0" class="tooltip-text">Stars: 235</text><text x="343.3" y="293.0" class="tooltip-text">单日增长: +4</text></g></g><g class="point"><circle cx="353.5" cy="291.3" r="11" fill="transparent"/><g class="tooltip"><line x1="353.5" y1="106" x2="353.5" y2="306" class="crosshair"/><circle cx="353.5" cy="291.3" r="4" fill="#69baff" stroke="#fff" stroke-width="1.5"/><rect x="366.5" y="236.0" width="124" height="66" rx="4" fill="#101113" opacity=".96"/><text x="374.5" y="254.0" class="tooltip-date">2026-08-30</text><text x="374.5" y="275.0" class="tooltip-text">Stars: 244</text><text x="374.5" y="293.0" class="tooltip-text">单日增长: +9</text></g></g><g class="point"><circle cx="384.8" cy="287.0" r="11" fill="transparent"/><g class="tooltip"><line x1="384.8" y1="106" x2="384.8" y2="306" class="crosshair"/><circle cx="384.8" cy="287.0" r="4" fill="#69baff" stroke="#fff" stroke-width="1.5"/><rect x="397.8" y="236.0" width="124" height="66" rx="4" fill="#101113" opacity=".96"/><text x="405.8" y="254.0" class="tooltip-date">2026-08-31</text><text x="405.8" y="275.0" class="tooltip-text">Stars: 257</text><text x="405.8" y="293.0" class="tooltip-text">单日增长: +13</text></g></g><g class="point"><circle cx="416.1" cy="285.0" r="11" fill="transparent"/><g class="tooltip"><line x1="416.1" y1="106" x2="416.1" y2="306" class="crosshair"/><circle cx="416.1" cy="285.0" r="4" fill="#69baff" stroke="#fff" stroke-width="1.5"/><rect x="429.1" y="236.0" width="124" height="66" rx="4" fill="#101113" opacity=".96"/><text x="437.1" y="254.0" class="tooltip-date">2026-09-01</text><text x="437.1" y="275.0" class="tooltip-text">Stars: 263</text><text x="437.1" y="293.0" class="tooltip-text">单日增长: +6</text></g></g><g class="point"><circle cx="447.4" cy="282.0" r="11" fill="transparent"/><g class="tooltip"><line x1="447.4" y1="106" x2="447.4" y2="306" class="crosshair"/><circle cx="447.4" cy="282.0" r="4" fill="#69baff" stroke="#fff" stroke-width="1.5"/><rect x="460.4" y="236.0" width="124" height="66" rx="4" fill="#101113" opacity=".96"/><text x="468.4" y="254.0" class="tooltip-date">2026-09-02</text><text x="468.4" y="275.0" class="tooltip-text">Stars: 272</text><text x="468.4" y="293.0" class="tooltip-text">单日增长: +9</text></g></g><g class="point"><circle cx="478.7" cy="280.7" r="11" fill="transparent"/><g class="tooltip"><line x1="478.7" y1="106" x2="478.7" y2="306" class="crosshair"/><circle cx="478.7" cy="280.7" r="4" fill="#69baff" stroke="#fff" stroke-width="1.5"/><rect x="491.7" y="236.0" width="124" height="66" rx="4" fill="#101113" opacity=".96"/><text x="499.7" y="254.0" class="tooltip-date">2026-09-03</text><text x="499.7" y="275.0" class="tooltip-text">Stars: 276</text><text x="499.7" y="293.0" class="tooltip-text">单日增长: +4</text></g></g><g class="point"><circle cx="509.9" cy="280.0" r="11" fill="transparent"/><g class="tooltip"><line x1="509.9" y1="106" x2="509.9" y2="306" class="crosshair"/><circle cx="509.9" cy="280.0" r="4" fill="#69baff" stroke="#fff" stroke-width="1.5"/><rect x="522.9" y="236.0" width="124" height="66" rx="4" fill="#101113" opacity=".96"/><text x="530.9" y="254.0" class="tooltip-date">2026-09-04</text><text x="530.9" y="275.0" class="tooltip-text">Stars: 278</text><text x="530.9" y="293.0" class="tooltip-text">单日增长: +2</text></g></g><g class="point"><circle cx="541.2" cy="278.7" r="11" fill="transparent"/><g class="tooltip"><line x1="541.2" y1="106" x2="541.2" y2="306" class="crosshair"/><circle cx="541.2" cy="278.7" r="4" fill="#69baff" stroke="#fff" stroke-width="1.5"/><rect x="554.2" y="236.0" width="124" height="66" rx="4" fill="#101113" opacity=".96"/><text x="562.2" y="254.0" class="tooltip-date">2026-09-05</text><text x="562.2" y="275.0" class="tooltip-text">Stars: 282</text><text x="562.2" y="293.0" class="tooltip-text">单日增长: +4</text></g></g><g class="point"><circle cx="572.5" cy="276.7" r="11" fill="transparent"/><g class="tooltip"><line x1="572.5" y1="106" x2="572.5" y2="306" class="crosshair"/><circle cx="572.5" cy="276.7" r="4" fill="#69baff" stroke="#fff" stroke-width="1.5"/><rect x="585.5" y="236.0" width="124" height="66" rx="4" fill="#101113" opacity=".96"/><text x="593.5" y="254.0" class="tooltip-date">2026-09-06</text><text x="593.5" y="275.0" class="tooltip-text">Stars: 288</text><text x="593.5" y="293.0" class="tooltip-text">单日增长: +6</text></g></g><g class="point"><circle cx="603.8" cy="274.0" r="11" fill="transparent"/><g class="tooltip"><line x1="603.8" y1="106" x2="603.8" y2="306" class="crosshair"/><circle cx="603.8" cy="274.0" r="4" fill="#69baff" stroke="#fff" stroke-width="1.5"/><rect x="616.8" y="236.0" width="124" height="66" rx="4" fill="#101113" opacity=".96"/><text x="624.8" y="254.0" class="tooltip-date">2026-09-07</text><text x="624.8" y="275.0" class="tooltip-text">Stars: 296</text><text x="624.8" y="293.0" class="tooltip-text">单日增长: +8</text></g></g><g class="point"><circle cx="635.1" cy="272.3" r="11" fill="transparent"/><g class="tooltip"><line x1="635.1" y1="106" x2="635.1" y2="306" class="crosshair"/><circle cx="635.1" cy="272.3" r="4" fill="#69baff" stroke="#fff" stroke-width="1.5"/><rect x="648.1" y="236.0" width="124" height="66" rx="4" fill="#101113" opacity=".96"/><text x="656.1" y="254.0" class="tooltip-date">2026-09-08</text><text x="656.1" y="275.0" class="tooltip-text">Stars: 301</text><text x="656.1" y="293.0" class="tooltip-text">单日增长: +5</text></g></g><g class="point"><circle cx="666.4" cy="271.7" r="11" fill="transparent"/><g class="tooltip"><line x1="666.4" y1="106" x2="666.4" y2="306" class="crosshair"/><circle cx="666.4" cy="271.7" r="4" fill="#69baff" stroke="#fff" stroke-width="1.5"/><rect x="679.4" y="236.0" width="124" height="66" rx="4" fill="#101113" opacity=".96"/><text x="687.4" y="254.0" class="tooltip-date">2026-09-09</text><text x="687.4" y="275.0" class="tooltip-text">Stars: 303</text><text x="687.4" y="293.0" class="tooltip-text">单日增长: +2</text></g></g><g class="point"><circle cx="697.6" cy="271.3" r="11" fill="transparent"/><g class="tooltip"><line x1="697.6" y1="106" x2="697.6" y2="306" class="crosshair"/><circle cx="697.6" cy="271.3" r="4" fill="#69baff" stroke="#fff" stroke-width="1.5"/><rect x="710.6" y="236.0" width="124" height="66" rx="4" fill="#101113" opacity=".96"/><text x="718.6" y="254.0" class="tooltip-date">2026-09-10</text><text x="718.6" y="275.0" class="tooltip-text">Stars: 304</text><text x="718.6" y="293.0" class="tooltip-text">单日增长: +1</text></g></g><g class="point"><circle cx="728.9" cy="269.0" r="11" fill="transparent"/><g class="tooltip"><line x1="728.9" y1="106" x2="728.9" y2="306" class="crosshair"/><circle cx="728.9" cy="269.0" r="4" fill="#69baff" stroke="#fff" stroke-width="1.5"/><rect x="741.9" y="236.0" width="124" height="66" rx="4" fill="#101113" opacity=".96"/><text x="749.9" y="254.0" class="tooltip-date">2026-09-11</text><text x="749.9" y="275.0" class="tooltip-text">Stars: 311</text><text x="749.9" y="293.0" class="tooltip-text">单日增长: +7</text></g></g><g class="point"><circle cx="760.2" cy="268.0" r="11" fill="transparent"/><g class="tooltip"><line x1="760.2" y1="106" x2="760.2" y2="306" class="crosshair"/><circle cx="760.2" cy="268.0" r="4" fill="#69baff" stroke="#fff" stroke-width="1.5"/><rect x="773.2" y="235.0" width="124" height="66" rx="4" fill="#101113" opacity=".96"/><text x="781.2" y="253.0" class="tooltip-date">2026-09-12</text><text x="781.2" y="274.0" class="tooltip-text">Stars: 314</text><text x="781.2" y="292.0" class="tooltip-text">单日增长: +3</text></g></g><g class="point"><circle cx="791.5" cy="266.3" r="11" fill="transparent"/><g class="tooltip"><line x1="791.5" y1="106" x2="791.5" y2="306" class="crosshair"/><circle cx="791.5" cy="266.3" r="4" fill="#69baff" stroke="#fff" stroke-width="1.5"/><rect x="804.5" y="233.3" width="124" height="66" rx="4" fill="#101113" opacity=".96"/><text x="812.5" y="251.3" class="tooltip-date">2026-09-13</text><text x="812.5" y="272.3" class="tooltip-text">Stars: 319</text><text x="812.5" y="290.3" class="tooltip-text">单日增长: +5</text></g></g><g class="point"><circle cx="822.8" cy="264.7" r="11" fill="transparent"/><g class="tooltip"><line x1="822.8" y1="106" x2="822.8" y2="306" class="crosshair"/><circle cx="822.8" cy="264.7" r="4" fill="#69baff" stroke="#fff" stroke-width="1.5"/><rect x="835.8" y="231.7" width="124" height="66" rx="4" fill="#101113" opacity=".96"/><text x="843.8" y="249.7" class="tooltip-date">2026-09-14</text><text x="843.8" y="270.7" class="tooltip-text">Stars: 324</text><text x="843.8" y="288.7" class="tooltip-text">单日增长: +5</text></g></g><g class="point"><circle cx="854.1" cy="254.3" r="11" fill="transparent"/><g class="tooltip"><line x1="854.1" y1="106" x2="854.1" y2="306" class="crosshair"/><circle cx="854.1" cy="254.3" r="4" fill="#69baff" stroke="#fff" stroke-width="1.5"/><rect x="867.1" y="221.3" width="124" height="66" rx="4" fill="#101113" opacity=".96"/><text x="875.1" y="239.3" class="tooltip-date">2026-09-15</text><text x="875.1" y="260.3" class="tooltip-text">Stars: 355</text><text x="875.1" y="278.3" class="tooltip-text">单日增长: +31</text></g></g><g class="point"><circle cx="885.3" cy="243.3" r="11" fill="transparent"/><g class="tooltip"><line x1="885.3" y1="106" x2="885.3" y2="306" class="crosshair"/><circle cx="885.3" cy="243.3" r="4" fill="#69baff" stroke="#fff" stroke-width="1.5"/><rect x="898.3" y="210.3" width="124" height="66" rx="4" fill="#101113" opacity=".96"/><text x="906.3" y="228.3" class="tooltip-date">2026-09-16</text><text x="906.3" y="249.3" class="tooltip-text">Stars: 388</text><text x="906.3" y="267.3" class="tooltip-text">单日增长: +33</text></g></g><g class="point"><circle cx="916.6" cy="230.3" r="11" fill="transparent"/><g class="tooltip"><line x1="916.6" y1="106" x2="916.6" y2="306" class="crosshair"/><circle cx="916.6" cy="230.3" r="4" fill="#69baff" stroke="#fff" stroke-width="1.5"/><rect x="929.6" y="197.3" width="124" height="66" rx="4" fill="#101113" opacity=".96"/><text x="937.6" y="215.3" class="tooltip-date">2026-09-17</text><text x="937.6" y="236.3" class="tooltip-text">Stars: 427</text><text x="937.6" y="254.3" class="tooltip-text">单日增长: +39</text></g></g><g class="point"><circle cx="947.9" cy="217.0" r="11" fill="transparent"/><g class="tooltip"><line x1="947.9" y1="106" x2="947.9" y2="306" class="crosshair"/><circle cx="947.9" cy="217.0" r="4" fill="#69baff" stroke="#fff" stroke-width="1.5"/><rect x="960.9" y="184.0" width="124" height="66" rx="4" fill="#101113" opacity=".96"/><text x="968.9" y="202.0" class="tooltip-date">2026-09-18</text><text x="968.9" y="223.0" class="tooltip-text">Stars: 467</text><text x="968.9" y="241.0" class="tooltip-text">单日增长: +40</text></g></g><g class="point"><circle cx="979.2" cy="204.0" r="11" fill="transparent"/><g class="tooltip"><line x1="979.2" y1="106" x2="979.2" y2="306" class="crosshair"/><circle cx="979.2" cy="204.0" r="4" fill="#69baff" stroke="#fff" stroke-width="1.5"/><rect x="992.2" y="171.0" width="124" height="66" rx="4" fill="#101113" opacity=".96"/><text x="1000.2" y="189.0" class="tooltip-date">2026-09-19</text><text x="1000.2" y="210.0" class="tooltip-text">Stars: 506</text><text x="1000.2" y="228.0" class="tooltip-text">单日增长: +39</text></g></g><g class="point"><circle cx="1010.5" cy="197.3" r="11" fill="transparent"/><g class="tooltip"><line x1="1010.5" y1="106" x2="1010.5" y2="306" class="crosshair"/><circle cx="1010.5" cy="197.3" r="4" fill="#69baff" stroke="#fff" stroke-width="1.5"/><rect x="1023.5" y="164.3" width="124" height="66" rx="4" fill="#101113" opacity=".96"/><text x="1031.5" y="182.3" class="tooltip-date">2026-09-20</text><text x="1031.5" y="203.3" class="tooltip-text">Stars: 526</text><text x="1031.5" y="221.3" class="tooltip-text">单日增长: +20</text></g></g><g class="point"><circle cx="1041.7" cy="188.3" r="11" fill="transparent"/><g class="tooltip"><line x1="1041.7" y1="106" x2="1041.7" y2="306" class="crosshair"/><circle cx="1041.7" cy="188.3" r="4" fill="#69baff" stroke="#fff" stroke-width="1.5"/><rect x="1054.7" y="155.3" width="124" height="66" rx="4" fill="#101113" opacity=".96"/><text x="1062.7" y="173.3" class="tooltip-date">2026-09-21</text><text x="1062.7" y="194.3" class="tooltip-text">Stars: 553</text><text x="1062.7" y="212.3" class="tooltip-text">单日增长: +27</text></g></g><g class="point"><circle cx="1073.0" cy="182.7" r="11" fill="transparent"/><g class="tooltip"><line x1="1073.0" y1="106" x2="1073.0" y2="306" class="crosshair"/><circle cx="1073.0" cy="182.7" r="4" fill="#69baff" stroke="#fff" stroke-width="1.5"/><rect x="1086.0" y="149.7" width="124" height="66" rx="4" fill="#101113" opacity=".96"/><text x="1094.0" y="167.7" class="tooltip-date">2026-09-22</text><text x="1094.0" y="188.7" class="tooltip-text">Stars: 570</text><text x="1094.0" y="206.7" class="tooltip-text">单日增长: +17</text></g></g><g class="point"><circle cx="1104.3" cy="176.3" r="11" fill="transparent"/><g class="tooltip"><line x1="1104.3" y1="106" x2="1104.3" y2="306" class="crosshair"/><circle cx="1104.3" cy="176.3" r="4" fill="#69baff" stroke="#fff" stroke-width="1.5"/><rect x="1117.3" y="143.3" width="124" height="66" rx="4" fill="#101113" opacity=".96"/><text x="1125.3" y="161.3" class="tooltip-date">2026-09-23</text><text x="1125.3" y="182.3" class="tooltip-text">Stars: 589</text><text x="1125.3" y="200.3" class="tooltip-text">单日增长: +19</text></g></g><g class="point"><circle cx="1135.6" cy="171.0" r="11" fill="transparent"/><g class="tooltip"><line x1="1135.6" y1="106" x2="1135.6" y2="306" class="crosshair"/><circle cx="1135.6" cy="171.0" r="4" fill="#69baff" stroke="#fff" stroke-width="1.5"/><rect x="1148.6" y="138.0" width="124" height="66" rx="4" fill="#101113" opacity=".96"/><text x="1156.6" y="156.0" class="tooltip-date">2026-09-24</text><text x="1156.6" y="177.0" class="tooltip-text">Stars: 605</text><text x="1156.6" y="195.0" class="tooltip-text">单日增长: +16</text></g></g><g class="point"><circle cx="1166.9" cy="162.3" r="11" fill="transparent"/><g class="tooltip"><line x1="1166.9" y1="106" x2="1166.9" y2="306" class="crosshair"/><circle cx="1166.9" cy="162.3" r="4" fill="#69baff" stroke="#fff" stroke-width="1.5"/><rect x="1029.9" y="129.3" width="124" height="66" rx="4" fill="#101113" opacity=".96"/><text x="1037.9" y="147.3" class="tooltip-date">2026-09-25</text><text x="1037.9" y="168.3" class="tooltip-text">Stars: 631</text><text x="1037.9" y="186.3" class="tooltip-text">单日增长: +26</text></g></g><g class="point"><circle cx="1198.2" cy="156.7" r="11" fill="transparent"/><g class="tooltip"><line x1="1198.2" y1="106" x2="1198.2" y2="306" class="crosshair"/><circle cx="1198.2" cy="156.7" r="4" fill="#69baff" stroke="#fff" stroke-width="1.5"/><rect x="1061.2" y="123.7" width="124" height="66" rx="4" fill="#101113" opacity=".96"/><text x="1069.2" y="141.7" class="tooltip-date">2026-09-26</text><text x="1069.2" y="162.7" class="tooltip-text">Stars: 648</text><text x="1069.2" y="180.7" class="tooltip-text">单日增长: +17</text></g></g><g class="point"><circle cx="1229.4" cy="152.0" r="11" fill="transparent"/><g class="tooltip"><line x1="1229.4" y1="106" x2="1229.4" y2="306" class="crosshair"/><circle cx="1229.4" cy="152.0" r="4" fill="#69baff" stroke="#fff" stroke-width="1.5"/><rect x="1092.4" y="119.0" width="124" height="66" rx="4" fill="#101113" opacity=".96"/><text x="1100.4" y="137.0" class="tooltip-date">2026-09-27</text><text x="1100.4" y="158.0" class="tooltip-text">Stars: 662</text><text x="1100.4" y="176.0" class="tooltip-text">单日增长: +14</text></g></g><g class="point"><circle cx="1260.7" cy="146.7" r="11" fill="transparent"/><g class="tooltip"><line x1="1260.7" y1="106" x2="1260.7" y2="306" class="crosshair"/><circle cx="1260.7" cy="146.7" r="4" fill="#69baff" stroke="#fff" stroke-width="1.5"/><rect x="1123.7" y="113.7" width="124" height="66" rx="4" fill="#101113" opacity=".96"/><text x="1131.7" y="131.7" class="tooltip-date">2026-09-28</text><text x="1131.7" y="152.7" class="tooltip-text">Stars: 678</text><text x="1131.7" y="170.7" class="tooltip-text">单日增长: +16</text></g></g><g class="point"><circle cx="1292.0" cy="136.3" r="11" fill="transparent"/><g class="tooltip"><line x1="1292.0" y1="106" x2="1292.0" y2="306" class="crosshair"/><circle cx="1292.0" cy="136.3" r="4" fill="#69baff" stroke="#fff" stroke-width="1.5"/><rect x="1155.0" y="110.0" width="124" height="66" rx="4" fill="#101113" opacity=".96"/><text x="1163.0" y="128.0" class="tooltip-date">2026-09-29</text><text x="1163.0" y="149.0" class="tooltip-text">Stars: 709</text><text x="1163.0" y="167.0" class="tooltip-text">单日增长: +31</text></g></g></g>
  <text x="24" y="352" class="footer">趋势基于本地每日快照，不在前台实时请求 GitHub。</text>
</svg>
